PathFileType	4	(X/Y/Z)	./resultDataOpenSim/trcMotMarkerGrf/sub09/qtm-03-08.trc
DataRate	CameraRate	NumFrames	NumMarkers	Units	OrigDataRate	OrigDataStartFrame	OrigNumFrames
250.000000	250.000000	6	24	m	250.000000	304	485
Frame#	Time	L.Toe.Tip			R.Toe.Tip			L.Ankle.Lat			R.Ankle.Lat			L.Ankle.Med			R.Ankle.Med			L.Heel			R.Heel			L.Knee.Lat			R.Knee.Lat			L.Knee.Med			R.Knee.Med			L.Thigh.Upper			R.Thigh.Upper			L.ASIS			R.ASIS			V.Sacral			L.Acromium			R.Acromium			C7			L.Elbow			R.Elbow			L.Wrist.Lat			R.Wrist.Lat
		X1	Y1	Z1	X2	Y2	Z2	X3	Y3	Z3	X4	Y4	Z4	X5	Y5	Z5	X6	Y6	Z6	X7	Y7	Z7	X8	Y8	Z8	X9	Y9	Z9	X10	Y10	Z10	X11	Y11	Z11	X12	Y12	Z12	X13	Y13	Z13	X14	Y14	Z14	X15	Y15	Z15	X16	Y16	Z16	X17	Y17	Z17	X18	Y18	Z18	X19	Y19	Z19	X20	Y20	Z20	X21	Y21	Z21	X22	Y22	Z22	X23	Y23	Z23	X24	Y24	Z24

304	1.212	0.15877619	-0.0083759893	0.015690251	1.0279385	0.062956964	0.1364687	0.071258905	0.11301257	-0.051033894	0.87983336	0.054698371	0.17213294	0.099778002	0.11666017	0.042736401	0.88201168	0.095850381	0.081046482	-0.0011081002	0.12948228	-0.0078481528	0.8156089	0.027429046	0.12256018	0.34121373	0.43966519	-0.080043145	0.78051581	0.50418368	0.21935006	0.34800391	0.4275575	0.045334531	0.76599459	0.47861435	0.095696196	0.4928627	0.82322899	-0.095419724	0.55414546	0.83158863	0.27231137	0.60555288	0.89265942	-0.053028094	0.62194668	0.91478163	0.18783409	0.44821114	0.96497967	0.076079964	0.63745292	1.3604236	-0.082852555	0.57571618	1.3690691	0.23984769	0.53854732	1.4099768	0.067564787	0.5706167	0.98954684	-0.1668484	0.40299722	1.0552977	0.31521545	0.8252342	0.9022141	-0.1157739	0.48818425	0.80856865	0.39629216
305	1.216	0.15956187	-0.0079066285	0.015148214	1.0297653	0.05878417	0.13635457	0.075096699	0.11566589	-0.052559454	0.8817989	0.054174596	0.17261854	0.10435863	0.11871145	0.040945178	0.88398708	0.095602003	0.081620852	0.0035859811	0.13377245	-0.0087444849	0.81651458	0.028301908	0.12328457	0.34953112	0.43905976	-0.080853949	0.78884029	0.50618784	0.21949138	0.35646398	0.42598469	0.044684254	0.77352121	0.48063691	0.096008326	0.500483	0.82232269	-0.094822403	0.56186488	0.83254282	0.27292797	0.61315033	0.89201286	-0.052148702	0.62914569	0.91514643	0.18835825	0.45578168	0.964997	0.076585531	0.6441574	1.3603111	-0.082498003	0.58279952	1.368707	0.24056372	0.54536552	1.4097124	0.067996154	0.57665245	0.98947962	-0.1663996	0.41023258	1.0549075	0.31565467	0.83070487	0.90070494	-0.1155104	0.49517597	0.80806518	0.39662621
306	1.22	0.16049916	-0.0072931204	0.014580493	1.031348	0.054732013	0.13581541	0.079130687	0.1184732	-0.053931288	0.88332329	0.053763719	0.17289474	0.10916879	0.12086951	0.039282279	0.88570347	0.095411885	0.081979614	0.0085391926	0.13823953	-0.0094656643	0.81721227	0.029039307	0.12384031	0.35831137	0.43836001	-0.081787204	0.79749308	0.50809531	0.21957832	0.36544165	0.42430268	0.043821026	0.78108351	0.4827698	0.096279868	0.50811213	0.82142346	-0.094260458	0.56931975	0.83371397	0.27355942	0.62057666	0.8913722	-0.051311309	0.6363031	0.91558441	0.18893765	0.46330945	0.96506096	0.077143493	0.65086467	1.360263	-0.082152863	0.58991723	1.3683942	0.24126627	0.55207677	1.4095387	0.068430173	0.58262988	0.9894904	-0.16590971	0.41755256	1.0545839	0.31612984	0.83607904	0.89915349	-0.11529167	0.50218664	0.80758939	0.39693598
307	1.224	0.16158021	-0.0065142691	0.014002723	1.0327368	0.051265644	0.13480764	0.083383105	0.12149047	-0.055130318	0.88464696	0.05344349	0.17291518	0.11418869	0.12319271	0.037797113	0.88715057	0.095192221	0.082041462	0.013778924	0.14293371	-0.010040154	0.81783118	0.029625955	0.12426071	0.36746257	0.43757615	-0.082772563	0.80626243	0.50968752	0.21963278	0.37492218	0.42247531	0.042777923	0.78857322	0.48484818	0.096516078	0.51575281	0.82055728	-0.093712597	0.57653855	0.83501381	0.274254	0.62785617	0.8907627	-0.050497633	0.64342446	0.91609238	0.18954106	0.47077709	0.96516471	0.077802597	0.65758714	1.3602759	-0.081787054	0.59704413	1.3681511	0.24194539	0.5587138	1.4094197	0.068973486	0.58854883	0.98959651	-0.16539101	0.42497833	1.0543336	0.31666327	0.84135847	0.89757137	-0.11511288	0.50922972	0.80715327	0.39722777
308	1.228	0.16280286	-0.0055530361	0.013420314	1.0339535	0.048664793	0.13348635	0.087878507	0.12474868	-0.056153454	0.88593603	0.053228849	0.17269071	0.11941383	0.1257177	0.036517003	0.888379	0.094906674	0.081782339	0.019328273	0.14787752	-0.010504486	0.8184395	0.030089883	0.12451005	0.37697351	0.43670288	-0.083789389	0.81471098	0.51081351	0.2197491	0.3847607	0.42047623	0.041650527	0.79593088	0.48677761	0.09672418	0.52339467	0.81972843	-0.093151342	0.58356197	0.83637123	0.27503353	0.63504185	0.89021609	-0.049667821	0.65050656	0.91667024	0.19016394	0.47817928	0.96530836	0.078555869	0.66432684	1.3603482	-0.081388332	0.60414988	1.3679882	0.24258841	0.56528981	1.4093267	0.06961322	0.59440853	0.98980929	-0.16485449	0.43248107	1.0541425	0.31723253	0.84655014	0.89597412	-0.11496849	0.51633255	0.80677118	0.39751183
309	1.232	0.16416812	-0.0044128989	0.012828858	1.0349781	0.046858002	0.13215152	0.092657035	0.12824367	-0.057013554	0.88718803	0.053138024	0.17230615	0.12484928	0.1284415	0.035441475	0.88944379	0.094554557	0.08128343	0.025204825	0.15305937	-0.010887358	0.81903321	0.030463992	0.12456245	0.38687471	0.43570908	-0.084860843	0.8225657	0.51145145	0.21997133	0.39490784	0.41832295	0.040474244	0.80314258	0.48851262	0.096912705	0.53101852	0.81891178	-0.092542953	0.59042383	0.83772585	0.27589093	0.64219287	0.88975031	-0.048780574	0.65753912	0.91731766	0.19081898	0.48551508	0.96549434	0.079380891	0.67107664	1.3604748	-0.080962611	0.61121499	1.367898	0.24319046	0.57181116	1.4092638	0.070262335	0.60021211	0.99012158	-0.16429767	0.43999285	1.053978	0.3177746	0.85165401	0.89435825	-0.11484978	0.52352608	0.80644915	0.39780162
